# xmcd
#
# Track frame offsets:
#	150
#	3847
#	22676
#	43754
#	65321
#	81535
#	104301
#	108558
#	132403
#	153631
#	179437
#	196859
#	220914
#	236762
#	257121
#	277646
#	296366
#	318200
#	334352
#
# Disc length: 4713 seconds
#
# Revision: 1
# Processed by: cddbd v1.5.2PL0 Copyright (c) Steve Scherf et al.
# Submitted via: audiograbber 1.83.01
#
DISCID=0b126713
DTITLE=Demis Roussos - Christmas Album - Come All Ye Faithful
DYEAR=1987
DGENRE=Pop
TTITLE0=Kyrieeleis
TTITLE1=Oh Come All Ye Faithful
TTITLE2=When A Child Is Born
TTITLE3=Il est né le devin enfant
TTITLE4=Hark! The Herald Angels Sing
TTITLE5=Little Drummer Boy
TTITLE6=Es Ist Ein Ros Entsprungen
TTITLE7=Ave Maria
TTITLE8=Silent Night
TTITLE9=What Child Is This?
TTITLE10=Mary's Boychild
TTITLE11=Gloria In Excelsis Deo
TTITLE12=Oh Come All Ye Faithful (Reprise)
TTITLE13=The First Noel
TTITLE14=Minuit Chretien
TTITLE15=Petit papa Noel
TTITLE16=White Christmas
TTITLE17=Oh Tannenbaum
TTITLE18=Feliz Navidad
EXTD=
EXTT0=
EXTT1=
EXTT2=
EXTT3=
EXTT4=
EXTT5=
EXTT6=
EXTT7=
EXTT8=
EXTT9=
EXTT10=
EXTT11=
EXTT12=
EXTT13=
EXTT14=
EXTT15=
EXTT16=
EXTT17=
EXTT18=
PLAYORDER=
